# xmcd
#
# Track frame offsets: 
#        150
#        17337
#        39700
#        56966
#        73653
#        88819
#        102245
#        122928
#        133943
#        154761
#        168725
#        187432
#        198198
#        212126
#        230910
#        259406
#        272012
#        291318
#        306650
#        322606
#
# Disc length: 4451 seconds
#
# Revision: 0
# Processed by: cddbd v1.5.2PL0 Copyright (c) Steve Scherf et al.
# Submitted via: ExactAudioCopy v0.95a3
#
DISCID=44116114
DTITLE=Michal Tucný - To byl Michal Tucný CD3
DYEAR=2006
DGENRE=Country
TTITLE0=Stastné staré slunce
TTITLE1=Cerný Bill a bílá Nelly
TTITLE2=Tam u nebeských bran
TTITLE3=20. století má na kahánku
TTITLE4=Pane muj...
TTITLE5=Prodavac
TTITLE6=Modrá z dzín
TTITLE7=Sest bílých koní
TTITLE8=Být hlídacem ruzí
TTITLE9=Más mne prectenýho
TTITLE10=Bud nad vecí
TTITLE11=Tenhle druh pisni
TTITLE12=V týhle skále mi buh domov dal
TTITLE13=Jak to doopravdy bylo s Babinským
TTITLE14=Jak chcete zít bez koní
TTITLE15=Já budu zít naveky
TTITLE16=Dést
TTITLE17=Prázdný nádrazí
TTITLE18=Chtel bych být medvídkem
TTITLE19=Vánocní
EXTD=
EXTT0=
EXTT1=
EXTT2=
EXTT3=
EXTT4=
EXTT5=
EXTT6=
EXTT7=
EXTT8=
EXTT9=
EXTT10=
EXTT11=
EXTT12=
EXTT13=
EXTT14=
EXTT15=
EXTT16=
EXTT17=
EXTT18=
EXTT19=
PLAYORDER=
